<?xml version="1.0" encoding="UTF-8"?><svg id="Ebene_1" xmlns="http://www.w3.org/2000/svg" viewBox="0 0 124.72 124.72"><defs><style>.cls-1{font-family:HelveticaNeue-Bold, 'Helvetica Neue';font-size:9px;font-weight:700;}.cls-1,.cls-2{fill:#e30613;}.cls-2{stroke-width:0px;}</style></defs><g id="rottranz"><polygon class="cls-2" points="28.83 50.62 9.18 60.55 28.83 70.48 28.83 50.62"/><polygon class="cls-2" points="55.39 65.59 41.81 65.59 41.81 62.86 54.42 62.86 54.42 57.91 41.81 57.91 41.81 55.17 55.39 55.17 55.39 50.22 33.78 50.22 33.78 70.55 55.39 70.55 55.39 65.59"/><path class="cls-2" d="m70.02,65.95c-1.25,0-2.14-.14-2.73-.43-.57-.31-.82-.77-.85-1.45h-9.68c.03,5.98,6.78,6.83,12.95,6.83,9.03,0,13.07-2.33,13.07-7.29,0-3.44-2.51-5.32-6.55-5.92l-9.59-1.42c-.8-.11-1.05-.48-1.05-1.05,0-.85.82-1.45,3.22-1.45.88,0,1.79.12,2.51.43.74.29,1.22.8,1.22,1.62h9.34c-.28-4.3-4.01-6.66-13.07-6.66-6.61,0-11.76,1.42-11.76,6.69,0,2.85,1.62,5.13,5.55,5.72l9.17,1.37c1.08.17,1.45.77,1.45,1.36,0,.97-.68,1.65-3.19,1.65Z"/><path class="cls-2" d="m98.24,54.27c3.1,0,4.07,2.11,4.3,3.56h9.05c-1.06-8.06-8.51-8.68-13.35-8.68s-13.89.34-13.89,10.87,9.02,10.87,13.89,10.87,7.97-.83,9.94-2.31c1.99-1.48,2.9-3.64,3.42-6.32h-9.05c-.66,2.45-2.17,3.5-4.7,3.5-2.93,0-4.95-1.62-4.95-5.75s2.08-5.75,5.35-5.75Z"/></g><g id="Ebene_2"><text class="cls-1" transform="translate(19.15 26.84) rotate(-47.4)"><tspan x="0" y="0">E</tspan></text><text class="cls-1" transform="translate(22.97 22.68) rotate(-41.62)"><tspan x="0" y="0">S</tspan></text><text class="cls-1" transform="translate(27.2 18.88) rotate(-35.48)"><tspan x="0" y="0">C</tspan></text><text class="cls-1" transform="translate(32.49 15.11) rotate(-29.13)"><tspan x="0" y="0">A</tspan></text><text class="cls-1" transform="translate(37.73 12.19) rotate(-23.05)"><tspan x="0" y="0">P</tspan></text><text class="cls-1" transform="translate(43.09 9.9) rotate(-17.12)"><tspan x="0" y="0">E</tspan></text><text class="cls-1" transform="translate(48.59 8.26) rotate(-12.93)"><tspan x="0" y="0"> </tspan></text><text class="cls-1" transform="translate(50.9 7.68) rotate(-8.94)"><tspan x="0" y="0">T</tspan></text><text class="cls-1" transform="translate(56.16 6.81) rotate(-2.89)"><tspan x="0" y="0">H</tspan></text><text class="cls-1" transform="translate(62.67 6.49) rotate(3.32)"><tspan x="0" y="0">E</tspan></text><text class="cls-1" transform="translate(68.37 6.88) rotate(7.44)"><tspan x="0" y="0"> </tspan></text><text class="cls-1" transform="translate(70.73 7.09) rotate(12.14)"><tspan x="0" y="0">O</tspan></text><text class="cls-1" transform="translate(77.42 8.53) rotate(18.85)"><tspan x="0" y="0">R</tspan></text><text class="cls-1" transform="translate(83.38 10.55) rotate(25.38)"><tspan x="0" y="0">D</tspan></text><text class="cls-1" transform="translate(89.25 13.35) rotate(31.64)"><tspan x="0" y="0">E</tspan></text><text class="cls-1" transform="translate(94.11 16.32) rotate(37.85)"><tspan x="0" y="0">R</tspan></text><text class="cls-1" transform="translate(99.07 20.27) rotate(42.33)"><tspan x="0" y="0">	</tspan></text><text class="cls-1" transform="translate(102.65 23.67) rotate(47.38)"><tspan x="0" y="0">	</tspan></text><text class="cls-1" transform="translate(117.21 51) rotate(81.17)"><tspan x="0" y="0">E</tspan></text><text class="cls-1" transform="translate(118.09 56.61) rotate(86.98)"><tspan x="0" y="0">S</tspan></text><text class="cls-1" transform="translate(118.42 62.29) rotate(93.19)"><tspan x="0" y="0">C</tspan></text><text class="cls-1" transform="translate(118.05 68.77) rotate(99.53)"><tspan x="0" y="0">A</tspan></text><text class="cls-1" transform="translate(117.06 74.69) rotate(105.57)"><tspan x="0" y="0">P</tspan></text><text class="cls-1" transform="translate(115.5 80.32) rotate(111.44)"><tspan x="0" y="0">E</tspan></text><text class="cls-1" transform="translate(113.35 85.62) rotate(115.6)"><tspan x="0" y="0"> </tspan></text><text class="cls-1" transform="translate(112.37 87.8) rotate(119.6)"><tspan x="0" y="0">T</tspan></text><text class="cls-1" transform="translate(109.76 92.48) rotate(125.71)"><tspan x="0" y="0">H</tspan></text><text class="cls-1" transform="translate(105.96 97.74) rotate(131.97)"><tspan x="0" y="0">E</tspan></text><text class="cls-1" transform="translate(102.11 101.94) rotate(136.12)"><tspan x="0" y="0"> </tspan></text><text class="cls-1" transform="translate(100.43 103.65) rotate(140.24)"><tspan x="0" y="0">S</tspan></text><text class="cls-1" transform="translate(96.07 107.29) rotate(146.04)"><tspan x="0" y="0">Y</tspan></text><text class="cls-1" transform="translate(91.23 110.56) rotate(151.91)"><tspan x="0" y="0">S</tspan></text><text class="cls-1" transform="translate(86.2 113.24) rotate(157.6)"><tspan x="0" y="0">T</tspan></text><text class="cls-1" transform="translate(81.27 115.29) rotate(163.27)"><tspan x="0" y="0">E</tspan></text><text class="cls-1" transform="translate(75.88 116.99) rotate(170.28)"><tspan x="0" y="0">M</tspan></text><text class="cls-1" transform="translate(67.95 118.22) rotate(175.6)"><tspan x="0" y="0">	</tspan></text><text class="cls-1" transform="translate(67.57 118.26) rotate(175.99)"><tspan x="0" y="0">	</tspan></text><text class="cls-1" transform="translate(37.13 112.57) rotate(-150.29)"><tspan x="0" y="0">E</tspan></text><text class="cls-1" transform="translate(32.2 109.77) rotate(-144.44)"><tspan x="0" y="0">S</tspan></text><text class="cls-1" transform="translate(27.56 106.49) rotate(-138.17)"><tspan x="0" y="0">C</tspan></text><text class="cls-1" transform="translate(22.74 102.17) rotate(-131.8)"><tspan x="0" y="0">A</tspan></text><text class="cls-1" transform="translate(18.73 97.69) rotate(-125.82)"><tspan x="0" y="0">P</tspan></text><text class="cls-1" transform="translate(15.31 92.96) rotate(-119.98)"><tspan x="0" y="0">E</tspan></text><text class="cls-1" transform="translate(12.49 87.96) rotate(-115.8)"><tspan x="0" y="0"> </tspan></text><text class="cls-1" transform="translate(11.38 85.85) rotate(-111.29)"><tspan x="0" y="0">R</tspan></text><text class="cls-1" transform="translate(9.09 79.96) rotate(-105.12)"><tspan x="0" y="0">E</tspan></text><text class="cls-1" transform="translate(7.6 74.48) rotate(-99.11)"><tspan x="0" y="0">A</tspan></text><text class="cls-1" transform="translate(6.66 68.57) rotate(-93.41)"><tspan x="0" y="0">L</tspan></text><text class="cls-1" transform="translate(6.39 63.32) rotate(-89.42)"><tspan x="0" y="0">I</tspan></text><text class="cls-1" transform="translate(6.36 60.8) rotate(-85.4)"><tspan x="0" y="0">T</tspan></text><text class="cls-1" transform="translate(6.77 55.46) rotate(-79.7)"><tspan x="0" y="0">Y</tspan></text><text class="cls-1" transform="translate(7.89 49.68) rotate(-75.48)"><tspan x="0" y="0">	</tspan></text></g></svg>